<?xml version="1.0" encoding="utf-8"?>
<!-- Generator: Adobe Illustrator 15.0.0, SVG Export Plug-In . SVG Version: 6.00 Build 0)  -->
<!DOCTYPE svg PUBLIC "-//W3C//DTD SVG 1.1 Basic//EN" "http://www.w3.org/Graphics/SVG/1.1/DTD/svg11-basic.dtd">
<svg version="1.1" baseProfile="basic" id="Feeds" xmlns="http://www.w3.org/2000/svg" xmlns:xlink="http://www.w3.org/1999/xlink"
	 x="0px" y="0px" width="100px" height="100px" viewBox="0 0 100 100" xml:space="preserve">
<g>
	<g>
		<g>
			<path fill="#FF0064" d="M39.404,46.838c7.72,0,13.999,6.31,13.999,14.054h9.332c0-12.902-10.469-23.431-23.333-23.431v9.377
				H39.404z"/>
		</g>
		<g>
			<path fill="#FF0064" d="M39.344,28.098c18.008,0,32.658,14.712,32.658,32.789h9.334c0-23.244-18.834-42.154-41.992-42.154V28.098
				z"/>
		</g>
		<g>
			<path fill="#FF0064" d="M39.344,9.367c28.303,0,51.322,23.116,51.322,51.524H100C100,27.317,72.79,0,39.341,0v9.366L39.344,9.367
				L39.344,9.367z"/>
		</g>
	</g>
</g>
<rect y="56.363" fill="#FF0064" width="18.75" height="18.637"/>
<rect x="25.001" y="56.363" fill="#FF0064" width="18.75" height="18.637"/>
<rect x="25.001" y="81.363" fill="#FF0064" width="18.75" height="18.637"/>
<rect y="81.363" fill="#FF0064" width="18.75" height="18.637"/>
</svg>
